<svg width="55" height="55" viewBox="0 0 55 55" fill="none" xmlns="http://www.w3.org/2000/svg"><path d="M4.963 17.306a.805.805 0 00.806-.806v-1.676c0-7.283 5.94-13.213 13.245-13.213 7.304 0 13.245 5.93 13.245 13.213v1.665c0 .44.365.806.805.806.44 0 .806-.365.806-.806v-1.665C33.87 6.65 27.21 0 19.014 0 10.817 0 4.157 6.65 4.157 14.824v1.665c0 .451.355.817.806.817z" fill="#00817C"/><path d="M47.749 36.072v-2.6a1.803 1.803 0 001.106-1.654v-2.245c0-.988-.805-1.794-1.793-1.794h-7.058c-.988 0-1.794.806-1.794 1.794v2.245c0 .742.451 1.386 1.106 1.655v2.6a10.124 10.124 0 00-3.147 2.309c-.344-2.654-1.257-4.984-2.643-6.703a4.673 4.673 0 001.622-1.01c.87-.817 1.375-1.89 1.375-2.943a4.298 4.298 0 00-2.631-3.964v-3.556a.812.812 0 00-.806-.806.811.811 0 00-.806.806v4.125c0 .365.247.688.602.784a2.697 2.697 0 012.03 2.6c0 1.15-1.17 2.47-2.718 2.61-1.45-1.085-4.157-1.912-5.725-2.159l-1.912-.3v-2.15c2.685-1.911 4.458-5.177 4.458-8.872 0-.827-.086-1.644-.258-2.428a.811.811 0 00-.73-.634c-3.836-.28-8.025-2.449-8.186-6.563a.817.817 0 00-.817-.784.824.824 0 00-.816.784c-.15 3.931-4.232 6.273-8.185 6.552a.799.799 0 00-.731.634 11.456 11.456 0 00-.258 2.439c0 3.695 1.773 6.96 4.458 8.873v2.148l-1.912.301c-1.568.247-4.275 1.074-5.726 2.16-1.546-.14-2.717-1.462-2.717-2.611 0-1.225.827-2.299 2.02-2.6a.806.806 0 00.6-.784v-4.125a.812.812 0 00-.805-.806.812.812 0 00-.806.806v3.556a4.298 4.298 0 00-2.631 3.964c0 1.708 1.3 3.297 2.997 3.942-2.492 3.083-2.793 7.315-2.793 9.142v9.925c0 .44.365.806.805.806h33.462A9.946 9.946 0 0043.527 55c5.49 0 9.958-4.458 9.958-9.937a9.92 9.92 0 00-5.736-8.99zm-7.939-6.51c0-.096.087-.182.183-.182h7.058c.096 0 .182.086.182.183v2.245a.188.188 0 01-.182.182h-7.058a.188.188 0 01-.183-.182v-2.245zM19.014 41.228l-1.923-6.294h3.856l-1.933 6.294zm-5.49-8.002l-1.59-1.633 1.945-1.622 3.47 11.333-5.468-5.167 1.654-1.805a.812.812 0 00-.01-1.106zm10.624-3.255l1.945 1.622-1.59 1.633a.802.802 0 00-.022 1.106l1.655 1.805-5.468 5.167 3.48-11.333zM10.635 16.855c0-.516.043-1.021.118-1.515 2.224-.258 4.307-1.053 5.897-2.267 1.032-.784 1.827-1.708 2.364-2.728.537 1.02 1.321 1.944 2.363 2.728 1.59 1.214 3.674 1.998 5.897 2.267.076.494.119.999.119 1.515 0 4.984-3.76 9.044-8.369 9.044-4.63.011-8.39-4.05-8.39-9.044zm8.379 10.666a9.4 9.4 0 003.91-.848v1.783l-1.493 4.877h-4.845l-1.493-4.877v-1.783a9.488 9.488 0 003.92.849zM3.34 40.81c0-1.837.322-6.392 3.32-9.045.912-.806 3.179-1.622 4.876-1.934l-1.3 1.085a.802.802 0 00-.29.58c-.01.226.076.44.226.602l1.665 1.708-1.676 1.826c-.3.322-.28.827.043 1.128l8.014 7.573v5.597H9.142l-.226-1.536c-.215-1.44.01-4.158 1.192-5.704a.804.804 0 10-1.278-.978c-1.568 2.04-1.762 5.253-1.504 6.929l.194 1.289H3.34v-9.12zm27.177 9.12l.194-1.29c.258-1.664.064-4.887-1.504-6.928a.804.804 0 10-1.278.977c1.181 1.537 1.407 4.254 1.192 5.705l-.236 1.536H19.83v-5.597l8.014-7.573a.798.798 0 00.043-1.128l-1.676-1.826 1.665-1.708a.784.784 0 00.226-.602.822.822 0 00-.29-.58l-1.3-1.085c1.697.322 3.964 1.139 4.866 1.934 2.857 2.524 3.276 6.778 3.32 8.712a9.911 9.911 0 00-1.118 4.587 9.85 9.85 0 001.278 4.866h-4.34zm13.01 3.459c-4.598 0-8.337-3.739-8.337-8.326a8.296 8.296 0 015.221-7.723.81.81 0 00.505-.752v-2.986h5.22v2.986a.82.82 0 00.506.752 8.296 8.296 0 015.22 7.723c0 4.587-3.738 8.326-8.336 8.326zm2.493-28.832c1.6 0 2.89-1.3 2.89-2.89s-1.3-2.89-2.89-2.89-2.89 1.3-2.89 2.89a2.89 2.89 0 002.89 2.89zm0-4.168c.708 0 1.278.569 1.278 1.278 0 .709-.57 1.278-1.279 1.278s-1.278-.569-1.278-1.278a1.274 1.274 0 011.279-1.278zm-5.039-4.104c1.601 0 2.89-1.3 2.89-2.89s-1.3-2.89-2.89-2.89-2.89 1.3-2.89 2.89 1.3 2.89 2.89 2.89zm0-4.168c.71 0 1.279.57 1.279 1.278 0 .699-.57 1.279-1.279 1.279s-1.278-.57-1.278-1.278c0-.71.58-1.279 1.278-1.279z" fill="#00817C"/><path d="M46.406 44.258h-2.073v-2.063a.812.812 0 00-.806-.805.812.812 0 00-.805.805v2.063h-2.074a.811.811 0 00-.805.805c0 .44.365.806.805.806h2.074v2.073c0 .44.365.806.805.806.44 0 .806-.365.806-.806V45.87h2.073c.44 0 .806-.365.806-.806a.805.805 0 00-.806-.805z" fill="#00817C"/></svg>