<svg width="55" height="55" viewBox="0 0 55 55" fill="none" xmlns="http://www.w3.org/2000/svg"><path d="M49.357 31.952a.806.806 0 00-.806-.806h-7.22a.806.806 0 00-.805.806v4.59c0 .445.36.805.805.805h7.22c.445 0 .806-.36.806-.805v-4.59zm-1.612 3.784h-5.608v-2.978h5.608v2.978zm.805 5.059h-7.218a.806.806 0 00-.806.806v4.587c0 .444.36.805.805.805h7.22c.445 0 .806-.36.806-.805V41.6a.806.806 0 00-.806-.806zm-.805 4.587h-5.608v-2.975h5.608v2.975z" fill="#00817C"/><path d="M55 15.734c0-1.543-1.258-2.8-2.804-2.8h-13.72V9.119A2.804 2.804 0 0041.22 6.32c0-1.544-1.258-2.8-2.804-2.8H16.282a2.805 2.805 0 00-2.804 2.8c0 1.544 1.258 2.8 2.804 2.8h.241v3.815H2.804A2.805 2.805 0 000 15.735c0 1.257.835 2.323 1.98 2.675v32.264c0 .445.36.805.806.805h49.428c.445 0 .806-.36.806-.805V35.555a.806.806 0 10-1.611 0v14.313H38.477V18.534h12.932v13.29a.806.806 0 101.611 0V18.41A2.805 2.805 0 0055 15.734zM15.09 6.32a1.19 1.19 0 011.192-1.188h22.133c.658 0 1.193.533 1.193 1.188 0 .655-.535 1.188-1.193 1.188H16.282a1.192 1.192 0 01-1.193-1.188zM1.61 15.734c0-.655.535-1.188 1.193-1.188h13.72v2.377H2.803a1.192 1.192 0 01-1.193-1.189zm1.98 2.8h12.932v31.334H3.591V18.534zM18.134 9.12h18.731v40.748h-2.651V38.401a.806.806 0 00-.806-.806H21.592a.806.806 0 00-.806.806v11.467h-2.652V9.12zm10.17 30.087h4.298v10.66h-4.298v-10.66zm-1.611 10.661h-4.295V39.207h4.295v10.661zm25.503-32.945h-13.72v-2.377h13.72c.658 0 1.193.533 1.193 1.188 0 .656-.535 1.189-1.193 1.189z" fill="#00817C"/><path d="M13.665 21.5H6.45a.806.806 0 00-.806.806v4.59c0 .444.361.805.806.805h7.216c.446 0 .806-.36.806-.806v-4.59a.806.806 0 00-.806-.805zm-.805 4.59H7.255v-2.98h5.605v2.979zm.805 5.056H6.45a.806.806 0 00-.806.806v4.59c0 .445.361.805.806.805h7.216c.446 0 .806-.36.806-.805v-4.59a.806.806 0 00-.806-.806zm-.805 4.59H7.255v-2.978h5.605v2.978zm.805 5.059H6.45a.806.806 0 00-.806.806v4.587c0 .444.361.805.806.805h7.216c.446 0 .806-.36.806-.805V41.6a.806.806 0 00-.806-.806zm-.805 4.587H7.255v-2.975h5.605v2.975zm36.497-23.076a.806.806 0 00-.806-.806h-7.22a.806.806 0 00-.805.806v4.59c0 .444.36.805.805.805h7.22c.445 0 .806-.36.806-.806v-4.59zm-1.612 3.784h-5.608v-2.98h5.608v2.979zm-25.278-4.166h2.27v2.266c0 .602.49 1.092 1.094 1.092h3.335c.605 0 1.097-.49 1.097-1.092v-2.266h2.27c.604 0 1.096-.49 1.096-1.093v-3.328c0-.605-.492-1.096-1.096-1.096h-2.27v-2.263c0-.605-.492-1.096-1.097-1.096h-3.335c-.603 0-1.094.491-1.094 1.096v2.263h-2.27c-.604 0-1.096.491-1.096 1.096v3.328c0 .602.492 1.093 1.096 1.093zm.515-3.906h2.56c.446 0 .806-.36.806-.806V14.66h2.303v2.553c0 .445.361.806.806.806h2.56v2.294h-2.56a.806.806 0 00-.806.806v2.553H26.35v-2.553a.806.806 0 00-.806-.806h-2.56v-2.294zm7.923 9.812h-6.81a.806.806 0 100 1.611h6.81a.806.806 0 100-1.61zm0 3.805h-6.81a.806.806 0 100 1.612h6.81a.806.806 0 100-1.612z" fill="#00817C"/></svg>