<svg width="176" height="95" viewBox="0 0 176 95" fill="none" xmlns="http://www.w3.org/2000/svg"><path d="M122.147 39.701h-14.034v5.603h14.034v-5.603zm-53.785 0H54.328v5.603h14.034v-5.603z" fill="#00817C"/><path d="M45.702 0C20.467 0 0 20.465 0 45.716v48.351h130.282C155.533 94.067 176 73.602 176 48.35V.01L45.702 0zm.957 39.702H28.962V58.23h-3.663V36.042h21.36v3.66zm25.368 9.265H56.75a3.244 3.244 0 01-2.421-1.085v6.688h17.7v3.66H50.666V36.043h21.36v12.925zm27.029 9.264h-3.662v-9.264H81.358v9.264h-3.66V36.042h3.66v9.266h14.036v-9.266h3.662v22.189zm26.745-9.266h-15.269a3.24 3.24 0 01-2.419-1.084v6.687h17.696v3.663H104.45V36.042h21.359l-.008 12.923zm25.098-6.084a3.23 3.23 0 01-1.694 2.835 3.234 3.234 0 011.694 2.835v9.68h-21.352V54.57h17.697v-5.603h-17.697v-3.663h17.697v-5.602h-17.697v-3.66h21.36l-.008 6.84z" fill="#00817C"/></svg>