<svg width="13" height="12" viewBox="0 0 13 12"  xmlns="http://www.w3.org/2000/svg">
<path d="M11.0508 7.87663C10.3161 7.87663 9.59473 7.76172 8.91114 7.53581C8.57617 7.42156 8.16439 7.52638 7.95995 7.73634L6.61067 8.75491C5.04589 7.91963 4.08202 6.95606 3.25814 5.40303L4.24673 4.08891C4.50358 3.83241 4.5957 3.45772 4.48533 3.10616C4.25845 2.41897 4.1432 1.69794 4.1432 0.962937C4.14323 0.431969 3.71127 0 3.18033 0H0.976578C0.445641 0 0.0136719 0.431969 0.0136719 0.962906C0.0136719 7.04884 4.96486 12 11.0508 12C11.5817 12 12.0137 11.568 12.0137 11.0371V8.8395C12.0137 8.30859 11.5817 7.87663 11.0508 7.87663Z" />
</svg>
