<?xml version="1.0" encoding="utf-8"?><svg width="74" height="42" fill="none" xmlns="http://www.w3.org/2000/svg" viewBox="0 0 74 42"><rect x="25.001" y="1" width="24" height="40" rx="9" stroke="#fff" stroke-width="2"/><rect x="36.001" y="7" width="2" height="9" rx="1" fill="#fff"/><path d="M73.841 22a.838.838 0 00-.246-.594l-5.16-5.16a.84.84 0 10-1.188 1.189L71.813 22l-4.566 4.565a.84.84 0 001.189 1.189l5.16-5.16A.838.838 0 0073.84 22zM0 22c0-.215.083-.43.246-.594l5.16-5.16a.84.84 0 111.189 1.189L2.029 22l4.566 4.565a.84.84 0 01-1.189 1.189l-5.16-5.16A.838.838 0 010 22z" fill="#fff"/></svg>