<?xml version="1.0" encoding="utf-8"?><svg viewBox="0 0 77 77" xmlns="http://www.w3.org/2000/svg" xmlns:xlink="http://www.w3.org/1999/xlink"><style>:root>svg{display:none}:root>svg:target{display:block}</style><svg fill="none" viewBox="0 0 74 42" id="ic_about-mouse" xmlns="http://www.w3.org/2000/svg"><rect x="25.001" y="1" width="24" height="40" rx="9" stroke="#fff" stroke-width="2"/><path d="M73.841 22a.838.838 0 00-.246-.594l-5.16-5.16a.84.84 0 10-1.188 1.189L71.813 22l-4.566 4.565a.84.84 0 001.189 1.189l5.16-5.16A.838.838 0 0073.84 22zM0 22c0-.215.083-.43.246-.594l5.16-5.16a.84.84 0 111.189 1.189L2.029 22l4.566 4.565a.84.84 0 01-1.189 1.189l-5.16-5.16A.838.838 0 010 22z" fill="#fff"/></svg><svg viewBox="0 0 12 12" id="ic_arr-down" xmlns="http://www.w3.org/2000/svg"><g clip-path="url(#bclip0)"><path d="M6 9.42c.215 0 .43-.082.594-.246l5.16-5.16a.84.84 0 10-1.189-1.188L6 7.392 1.435 2.826A.84.84 0 00.246 4.015l5.16 5.16c.164.163.38.245.594.245z"/></g><defs><clipPath id="bclip0"><path transform="matrix(-1 0 0 1 12 0)" d="M0 0h12v12H0z"/></clipPath></defs></svg><svg viewBox="0 0 16 16" id="ic_arr-left" xmlns="http://www.w3.org/2000/svg"><g clip-path="url(#cclip0)"><path d="M3.44 8c0-.287.11-.574.328-.792l6.88-6.88a1.12 1.12 0 011.584 1.585L6.144 8l6.088 6.087a1.12 1.12 0 01-1.585 1.585l-6.88-6.88A1.117 1.117 0 013.44 8z"/></g><defs><clipPath id="cclip0"><path transform="rotate(90 8 8)" d="M0 0h16v16H0z"/></clipPath></defs></svg><svg viewBox="0 0 16 16" id="ic_arr-right" xmlns="http://www.w3.org/2000/svg"><g clip-path="url(#dclip0)"><path d="M12.56 8c0-.287-.11-.574-.328-.792L5.352.328a1.12 1.12 0 10-1.584 1.585L9.855 8l-6.087 6.087a1.12 1.12 0 001.584 1.585l6.88-6.88c.219-.219.328-.505.328-.792z"/></g><defs><clipPath id="dclip0"><path transform="matrix(0 1 1 0 0 0)" d="M0 0h16v16H0z"/></clipPath></defs></svg><svg viewBox="0 0 9 17" id="ic_fb" xmlns="http://www.w3.org/2000/svg"><path d="M8.216 0H7.198c-2.83 0-5.134 2.015-5.134 4.492v1.896H.324c-.179 0-.324.127-.324.284v2.272c0 .156.145.284.324.284h1.74v6.956c0 .157.146.284.325.284h2.595c.18 0 .325-.127.325-.284V9.228H7.89c.179 0 .324-.128.324-.284V6.672c0-.157-.145-.284-.324-.284H5.309V4.492c0-.911.847-1.653 1.889-1.653h1.018c.18 0 .325-.127.325-.284V.284C8.54.127 8.395 0 8.216 0z"/></svg><svg viewBox="0 0 17 17" id="ic_ig" xmlns="http://www.w3.org/2000/svg"><path d="M11.09.72H5.042C2.258.72 0 2.898 0 5.582v5.833c0 2.684 2.258 4.86 5.041 4.86h6.05c2.784 0 5.041-2.176 5.041-4.86V5.58c0-2.684-2.257-4.86-5.041-4.86zm3.53 10.694c0 1.876-1.583 3.402-3.53 3.402H5.042c-1.946 0-3.529-1.526-3.529-3.402V5.58c0-1.876 1.583-3.402 3.53-3.402h6.049c1.946 0 3.529 1.526 3.529 3.402v5.833z"/><path d="M8.066 4.61c-2.227 0-4.033 1.74-4.033 3.887 0 2.148 1.806 3.889 4.033 3.889 2.227 0 4.033-1.741 4.033-3.889 0-2.147-1.806-3.888-4.033-3.888zm0 6.318c-1.39 0-2.52-1.091-2.52-2.43 0-1.341 1.13-2.43 2.52-2.43 1.39 0 2.52 1.089 2.52 2.43 0 1.339-1.13 2.43-2.52 2.43zM12.402 4.836a.528.528 0 00.537-.519.528.528 0 00-.537-.518.528.528 0 00-.538.518c0 .287.24.519.538.519z"/></svg><svg fill="none" viewBox="0 0 17 15" id="ic_ok" xmlns="http://www.w3.org/2000/svg"><path d="M6 14.166c.215 0 .43-.082.594-.246L16.688 1.435A.84.84 0 0015.5.246L6 12.137 1.435 7.572A.84.84 0 00.247 8.76l5.16 5.16c.163.164.378.246.593.246z" fill="#fff"/></svg><svg viewBox="0 0 13 12" id="ic_phone" xmlns="http://www.w3.org/2000/svg"><path d="M11.05 7.877a6.813 6.813 0 01-2.139-.341c-.335-.114-.747-.01-.951.2L6.61 8.755C5.047 7.92 4.083 6.956 3.259 5.403l.989-1.314a.97.97 0 00.238-.983A6.823 6.823 0 014.143.963.964.964 0 003.18 0H.977a.964.964 0 00-.963.963C.014 7.049 4.964 12 11.05 12c.53 0 .963-.432.963-.963V8.84a.964.964 0 00-.963-.962z"/></svg><svg fill="none" viewBox="0 0 77 77" id="ic_play" xmlns="http://www.w3.org/2000/svg"><circle cx="38.5" cy="38.5" r="38.5" fill="#E2243C"/><path d="M48.293 36.498a2 2 0 010 3.004l-10.722 9.433c-1.292 1.136-3.321.219-3.321-1.502V28.567c0-1.72 2.029-2.638 3.321-1.502l10.722 9.433z" fill="#fff"/></svg><svg viewBox="0 0 16 16" id="ic_square-menu" xmlns="http://www.w3.org/2000/svg"><path d="M0 0h4v4H0zM0 6h4v4H0zM0 12h4v4H0zM6 0h4v4H6zM6 6h4v4H6zM6 12h4v4H6zM12 0h4v4h-4zM12 6h4v4h-4zM12 12h4v4h-4z"/></svg><svg viewBox="0 0 16 14" id="ic_tg" xmlns="http://www.w3.org/2000/svg"><path d="M6.279 9.096l-.265 3.723c.379 0 .543-.163.74-.358l1.775-1.697 3.679 2.695c.674.376 1.15.178 1.332-.621l2.415-11.316c.214-.997-.36-1.388-1.018-1.143L.743 5.813c-.969.376-.954.916-.165 1.161l3.629 1.129 8.43-5.274c.396-.263.757-.118.46.145L6.279 9.096z"/></svg><svg viewBox="0 0 16 13" id="ic_tw" xmlns="http://www.w3.org/2000/svg"><path d="M16 1.543a6.872 6.872 0 01-1.645 1.696 9.368 9.368 0 01-.376 3.066 9.453 9.453 0 01-1.177 2.517 9.91 9.91 0 01-1.868 2.143c-.724.615-1.597 1.11-2.62 1.482a9.666 9.666 0 01-3.278.548A9.106 9.106 0 010 11.523c.237.027.5.04.792.04a6.42 6.42 0 004.07-1.4 3.214 3.214 0 01-1.908-.65 3.235 3.235 0 01-1.157-1.625c.223.034.43.051.62.051.29 0 .578-.037.862-.112a3.259 3.259 0 01-1.888-1.126A3.201 3.201 0 01.65 4.609v-.04c.46.257.954.395 1.482.416a3.275 3.275 0 01-1.066-1.168A3.195 3.195 0 01.67 2.254c0-.596.149-1.147.447-1.655a9.373 9.373 0 002.985 2.426A9.22 9.22 0 007.878 4.03a3.643 3.643 0 01-.081-.75c0-.908.318-1.68.954-2.316A3.169 3.169 0 0111.076 0c.948 0 1.746.345 2.396 1.036a6.43 6.43 0 002.081-.792 3.184 3.184 0 01-1.441 1.807A6.534 6.534 0 0016 1.543z"/></svg><svg viewBox="0 0 19 11" id="ic_vk" xmlns="http://www.w3.org/2000/svg"><path d="M17.57 8.059c-.393-.414-.84-.785-1.27-1.143-.154-.128-.313-.26-.466-.39-.438-.377-.454-.519-.107-.947.24-.295.495-.59.742-.876.224-.26.455-.527.677-.796l.045-.055c.424-.515.862-1.047 1.095-1.689.06-.17.124-.418-.021-.627-.145-.208-.427-.272-.627-.301a1.946 1.946 0 00-.287-.017l-2.774-.002h-.023c-.42 0-.702.174-.864.53a13.74 13.74 0 01-.519 1.05c-.385.688-.875 1.48-1.584 2.141l-.03.028c-.084.08-.179.169-.248.169a.133.133 0 01-.035-.006c-.147-.05-.246-.362-.241-.507v-.006L11.03 1.8l-.003-.03c-.07-.457-.226-.742-.817-.843a.278.278 0 00-.048-.004H7.278c-.47 0-.729.168-.972.419-.066.067-.202.206-.135.376.07.172.292.208.365.22.361.06.564.254.622.593.1.588.113 1.216.039 1.975a1.49 1.49 0 01-.129.514c-.015.032-.07.138-.127.138-.018 0-.07-.006-.165-.063-.224-.135-.387-.327-.578-.564A12.863 12.863 0 014.53 1.817a.986.986 0 00-.92-.592c-.46-.006-.878-.01-1.276-.01-.435 0-.839.004-1.232.012-.337.005-.57.093-.693.263s-.115.394.024.664C1.544 4.32 2.55 5.896 3.697 7.261c.804.956 1.61 1.618 2.536 2.082.977.49 2.071.729 3.345.729.145 0 .294-.003.445-.01.74-.031 1.015-.266 1.05-.9.016-.323.057-.662.238-.951.114-.183.22-.183.256-.183.067 0 .151.028.241.079.161.092.3.216.413.324l.317.31c.228.224.464.456.71.675.538.481 1.132.693 1.813.647h2.56a.755.755 0 00.602-.34c.16-.248.157-.564-.008-.847a4.587 4.587 0 00-.645-.817z"/></svg><svg viewBox="0 0 16 17" id="ic_wa" xmlns="http://www.w3.org/2000/svg"><path d="M9.719 9.385c.27-.34.451-.51.541-.51.09 0 .428.153 1.01.458.591.306.904.49.938.552.014.035.021.087.021.157 0 .229-.059.493-.177.791-.111.271-.358.5-.74.688-.381.18-.736.27-1.062.27-.396 0-1.056-.215-1.98-.645a5.945 5.945 0 01-1.77-1.23C6 9.41 5.486 8.768 4.958 7.99c-.5-.743-.746-1.417-.74-2.021v-.084c.022-.632.279-1.18.772-1.645a.788.788 0 01.541-.23c.042 0 .104.007.188.021.083.007.15.01.198.01.132 0 .222.025.27.074.056.041.112.135.167.28.056.14.17.445.344.918.174.472.26.732.26.78 0 .147-.121.348-.364.605-.236.25-.354.41-.354.48 0 .048.017.1.052.155.236.507.59.983 1.062 1.427.39.368.913.72 1.573 1.053.083.048.16.072.23.072.103 0 .29-.166.562-.5zm-1.573 5.01a6.33 6.33 0 002.531-.52 6.581 6.581 0 002.094-1.396 6.613 6.613 0 001.396-2.083c.347-.813.52-1.66.52-2.542a6.33 6.33 0 00-.52-2.531 6.582 6.582 0 00-1.396-2.094 6.581 6.581 0 00-2.094-1.396 6.329 6.329 0 00-2.531-.52c-.882 0-1.73.173-2.542.52-.805.348-1.5.813-2.083 1.396a6.582 6.582 0 00-1.396 2.094 6.329 6.329 0 00-.52 2.531c0 1.41.416 2.688 1.25 3.833l-.824 2.428 2.521-.803a6.406 6.406 0 003.594 1.084zM5.094.626A7.669 7.669 0 018.146 0c1.062 0 2.076.208 3.041.625a7.918 7.918 0 012.51 1.677 7.918 7.918 0 011.678 2.51c.417.966.625 1.98.625 3.042 0 1.063-.208 2.08-.625 3.052a7.947 7.947 0 01-1.677 2.5 7.916 7.916 0 01-2.51 1.677 7.594 7.594 0 01-3.042.625 7.735 7.735 0 01-3.802-.979L0 16.125l1.417-4.219A7.666 7.666 0 01.292 7.854c0-1.062.208-2.076.625-3.042a7.917 7.917 0 011.677-2.51 7.948 7.948 0 012.5-1.677z"/></svg></svg>